<svg xmlns="http://www.w3.org/2000/svg" width="512" height="512" viewBox="0 0 512 512"><path d="M150 308.3c-1-.2-2.1-.4-3.1-.6-14.1-2.6-26.5-15.6-28.5-30.3-2.9-21.6 12.3-36.9 26.6-40.4 9.8-2.4 19.1-1.3 27.9 3.9.3.2.6.4.9.5.1 0 .1.1.4.1v-37.8h16.3c.1.5.2 1.1.2 1.6v102.9h-16.5v-5.8c-3.4 2.2-6.8 3.8-10.5 4.7-1.7.4-3.4.7-5.1 1.1-2.8.1-5.7.1-8.6.1zm3.3-56.1c-11 .6-19.4 9.9-18.8 20.8.6 11.1 9.8 19.6 20.7 19.1 11.1-.6 19.5-9.9 19-20.9-.6-11.2-9.8-19.6-20.9-19zM296.2 308.3c-1.7-.4-3.5-.7-5.2-1.1-14-3.8-24.6-15.9-26.4-30.3-2.5-20.2 10.3-33.9 22.8-38.6 10.8-4.1 21.4-3.2 31.5 2.5.4.2.9.5 1.5.9V236h16.4c0 .3.1.6.1.9v71.5h-16.5v-5.7c-.5.3-.8.4-1.1.6-3.2 2-6.7 3.4-10.3 4.3-1.3.3-2.6.6-3.9.8-3-.1-6-.1-8.9-.1zm24.2-36.3c0-11-8.9-20-19.8-19.9-11.1.1-19.9 8.9-19.9 19.9 0 11.2 8.8 20 19.9 20 11.1 0 19.8-8.8 19.8-20zM420.6 203.7v25.5h21.5v16.3h-21.4c0 .4-.1.8-.1 1.1v26.3c0 9.2 8 17.8 17.1 18.9 6.5.7 12-1 16.8-5.7 1.8 1.7 3.5 3.3 5.3 5 2.2 2.1 4.5 4.1 6.7 6.2v.2c-.4.3-.8.6-1.1.9-4.4 4.2-9.5 7.2-15.4 8.7-1.8.5-3.6.8-5.3 1.1h-8.9c-1.8-.4-3.6-.7-5.4-1.2-13.8-3.7-24.6-16.3-26.2-30.5-.1-1.3-.3-2.7-.3-4.1v-68-.7h16.7zM229.4 308.3c-1.7-.4-3.3-.6-5-1.1-11.5-3-24.5-13.9-26.5-30.5-2.5-20 10.8-34.4 23.7-38.8 12.1-4.2 23.4-2.2 33.7 5.3 2.8 2 5.3 4.4 8.1 6.8-4.3 3.7-8.4 7.3-12.5 10.8-1.5-1.3-2.9-2.5-4.3-3.7-3.4-2.6-7.2-4.6-11.6-4.9-4.8-.3-9.3.9-13 4-6.1 4.9-8.8 11.4-7.5 19.1 1.3 7.6 5.8 12.8 13 15.6 6.1 2.3 12 1.3 17.2-2.5 2.5-1.7 4.7-3.8 7.1-5.8 3.6 3.8 7.3 7.7 11.2 11.8-1.9 1.7-3.9 3.7-6.2 5.5-5.4 4.3-11.4 7.3-18.3 8.2-.1 0-.3.1-.4.2h-8.7zM45.5 298.7c.3-1.2.5-2.4 1-3.5.8-1.6 1.6-3.3 2.6-4.8.8-1.1 2.1-1.2 3.4-1 .2 0 .5.5.6.8.4 1.3.6 2.7 1.2 4 1 2.1 2.8 3.2 5.1 2.9 14.1-1.5 26.3-6.8 35.5-18.1 4.1-4.9 7.3-10.3 9.5-16.3 1.8-4.7-1.2-6.4-4.4-6.8-3.8-.5-7.5.1-11.2 1.2-6.1 1.8-12.1 4-17.3 7.9-1.5 1.1-2.7 2.5-4.2 3.6-.9.7-2.1 1.3-3.2 1.4-1.8.2-3-1.2-3.1-3.1-.1-2.3.7-4.2 2.2-5.9 2.7-2.9 5.6-5.7 8.3-8.6 3-3.2 5.9-6.4 8.8-9.6-.1-.1-.1-.2-.2-.3-1.2.6-2.4 1.2-3.6 1.7-4.4 2.2-8.9 4.5-13.3 6.7-.8.4-1.2.3-1.8-.3-1.4-1.4-2.1-2.9-2.2-4.8 0-2.6 1.2-4.5 3.5-5.6 4.6-2 9.2-4 13.7-6.1 5-2.3 10-4.7 15-7.2 1.7-.8 3.3-1.9 5-2.9.4-.3.9-.5 1.4-.6 1.5-.3 3-.4 4 1s1.2 3 .2 4.4c-1.8 2.7-3.6 5.4-5.7 7.9-2.7 3.3-5.7 6.5-8.5 9.7-.3.3-.5.6-1 1.2 1.5-.3 2.6-.7 3.8-.9 4-.7 8-1.6 12-1.9 2.3-.2 4.8.2 7.1.8 5 1.3 7.3 5 6.8 10.2-.5 4.9-2.3 9.3-4.8 13.5-8.3 14.3-20.2 24.8-34.7 32.4-5.4 2.9-11.2 5.1-17.3 5.9-2.1.3-4.3.4-6.4.3-3.6-.2-6.6-1.4-7.9-5.2.1-1.3.1-2.6.1-4zM344.8 308.3v-25.4-45.6-1.5h16.4v5.8c6.4-4.1 13.2-6 20.5-5.9 7.4.1 14.1 2.2 20 6.4-4 4-7.9 7.9-11.7 11.6-2.5-.6-5-1.4-7.5-1.6-7.4-.7-13.3 2.3-17.7 8.2-2.7 3.6-3.8 7.9-3.7 12.3v34.8c0 .2.1.5.1.7-5.4.2-10.9.2-16.4.2z"/></svg>